<?xml version="1.0" encoding="UTF-8" standalone="no"?>
<svg
   data-name="Layer 1"
   width="998.78479"
   height="418.78622"
   viewBox="0 0 998.78478 418.78624"
   version="1.1"
   id="svg94"
   sodipodi:docname="post#1-cover.svg"
   inkscape:version="1.1.2 (b8e25be833, 2022-02-05)"
   xmlns:inkscape="http://www.inkscape.org/namespaces/inkscape"
   xmlns:sodipodi="http://sodipodi.sourceforge.net/DTD/sodipodi-0.dtd"
   xmlns="http://www.w3.org/2000/svg"
   xmlns:svg="http://www.w3.org/2000/svg">
  <defs
     id="defs98" />
  <sodipodi:namedview
     id="namedview96"
     pagecolor="#505050"
     bordercolor="#eeeeee"
     borderopacity="1"
     inkscape:pageshadow="0"
     inkscape:pageopacity="0"
     inkscape:pagecheckerboard="0"
     showgrid="false"
     fit-margin-top="0"
     fit-margin-left="0"
     fit-margin-right="0"
     fit-margin-bottom="0"
     inkscape:zoom="0.34389399"
     inkscape:cx="936.33507"
     inkscape:cy="-110.49917"
     inkscape:window-width="1366"
     inkscape:window-height="715"
     inkscape:window-x="-8"
     inkscape:window-y="-8"
     inkscape:window-maximized="1"
     inkscape:current-layer="svg94" />
  <g
     id="g1209"
     transform="matrix(1.4347275,0,0,1.4347275,199.10106,877.83616)">
    <path
       d="m 167.16433,-334.63144 a 127,127 0 1 1 127,-127 127.1441,127.1441 0 0 1 -127,127 z m 0,-252 a 125,125 0 1 0 125,125 125.1415,125.1415 0 0 0 -125,-125 z"
       fill="#f2f2f2"
       id="path2" />
    <path
       d="m 176.85568,-433.84172 h 81.4331 a 1,1 0 0 0 0,-2 h -81.4331 a 1,1 0 0 0 0,2 z"
       fill="#3f3d56"
       id="path4" />
    <path
       d="m 278.57805,-436.84172 a 25.66668,25.66668 0 0 0 -25.6377,25.6377 v 108.72461 a 25.66667,25.66667 0 0 0 25.6377,25.63769 h 168.72461 a 25.66666,25.66666 0 0 0 25.63769,-25.63769 v -108.72462 a 25.66667,25.66667 0 0 0 -25.63769,-25.6377 z"
       fill="#ffffff"
       id="path6" />
    <path
       d="M 447.30266,-275.84172 H 278.57805 a 26.668,26.668 0 0 1 -26.6377,-26.63769 v -108.72462 a 26.668,26.668 0 0 1 26.6377,-26.6377 h 168.72461 a 26.668,26.668 0 0 1 26.63769,26.6377 v 108.72462 a 26.668,26.668 0 0 1 -26.63769,26.63769 z m -168.72461,-160 a 24.66538,24.66538 0 0 0 -24.6377,24.6377 v 108.72461 a 24.66537,24.66537 0 0 0 24.6377,24.63769 h 168.72461 a 24.66536,24.66536 0 0 0 24.63769,-24.63769 v -108.72462 a 24.66537,24.66537 0 0 0 -24.63769,-24.6377 z"
       fill="#3f3d56"
       id="path8" />
    <path
       d="m 173.96323,-443.20279 a 9.82836,9.82836 0 0 0 -8.04356,11.10056 9.42813,9.42813 0 0 0 0.37533,1.51286 l -50.30634,44.33588 18.63388,13.052 44.4592,-51.79038 a 9.80111,9.80111 0 0 0 5.85205,-10.437 9.37962,9.37962 0 0 0 -10.7166,-7.81726 q -0.12727,0.0199 -0.25396,0.0433 z"
       fill="#a0616a"
       id="path10" />
    <path
       d="m 154.88035,-393.03172 c 0,0 -11.35,13.07 -25.17,27.87 -0.96,1.02 -1.92,2.05 -2.91,3.09 -8.4,8.9 -17.45,18.14 -25.3,25.31 -8.369997,7.67 -15.379997,13.01 -18.779997,13.14 a 2.46622,2.46622 0 0 1 -0.84,-0.09 c -10.17,-3.06 -1.79,0.58 -6.14,6.79 -4.37,6.22 -3.83,-1.94 -13.62,-6.79 -9.77,-4.85 -4.57,-0.03 -8.47,7.63 -1.21,2.4 -11.83,1.91 -25.83,0.11 -1.58,-13.35 -3.88,-24.87 -3.88,-24.87 a 113.61882,113.61882 0 0 1 2.44,-23.83 c 24.39,-0.44 44.56,-0.69 45.59,-0.37 2.66,0.81 8.37995,-1.24 14.7,-4.81 0.9,-0.51 2.6,-1.69 4.85,-3.35 1.99,-1.46 4.38995,-3.28 7.06,-5.32 2.999997,-2.32 8.109997,-3.59 9.769997,-7.63 4.82,-11.66 3.17,-2.96 4.46,-3.5 1.47,-0.62 4.07,-0.86005 5.59,-1.75 a 2.00966,2.00966 0 0 0 1.17,-2.21 4.06716,4.06716 0 0 0 -0.38,-1.09 c -1.38,-2.77 0.72,-3.04 2.7,-3.33 a 5.1401,5.1401 0 0 0 2.33,-0.69 c 7.95,-6.34 13.97,-11.21 13.97,-11.21 l 2.16,2.2 0.01,0.01 12.78,12.94 z"
       fill="#3f3d56"
       id="path12" />
    <path
       d="M 143.97775,-20.06922 H 17.599823 c -5.40967,0 -9.8110004,-5.5561 -9.8110004,-12.38441 v -134.28809 c 0,-6.82832 4.4013704,-12.38441 9.8110004,-12.38441 H 143.97775 c 5.40967,0 9.811,5.55609 9.811,12.38441 v 134.28809 c 3e-5,6.82831 -4.40133,12.38441 -9.811,12.38441 z"
       fill="#f2f2f2"
       id="path14" />
    <path
       d="m -57.829867,-20.34392 a 1.36951,1.36951 0 0 0 1.19006,1.5022 H 475.65019 a 1.54316,1.54316 0 0 0 0,-3.00441 H -56.639867 a 1.36957,1.36957 0 0 0 -1.19,1.50221 z"
       fill="#cccccc"
       id="path16" />
    <polygon
       points="308.368,520.095 289.562,520.096 289.565,569.244 302.306,569.243 "
       fill="#a0616a"
       id="polygon18"
       transform="translate(-57.829887,-607.93634)" />
    <path
       d="m 231.28604,-25.39979 39.18343,-0.001 v -0.49554 a 15.25211,15.25211 0 0 0 -15.25128,-15.251 h -9.5e-4 l -7.15735,-5.42995 -13.35405,5.43072 -3.42045,1.2e-4 z"
       fill="#2f2e41"
       id="path20" />
    <polygon
       points="241.843,521.171 223.74,516.075 210.422,563.385 222.687,566.837 "
       fill="#a0616a"
       id="polygon22"
       transform="translate(-57.829887,-607.93634)" />
    <path
       d="m 148.55762,-31.87803 37.71728,10.61828 0.1343,-0.477 a 15.25211,15.25211 0 0 0 -10.547,-18.81371 l -9.1e-4,-2.6e-4 -5.41782,-7.16654 -14.32614,1.60823 -3.29246,-0.92692 z"
       fill="#2f2e41"
       id="path24" />
    <path
       d="m 119.94035,-253.84172 c 0,0 -4.07984,-0.40617 6.38019,3.21383 11.32,3.93 28.5,3.42 44.95,9.32 5.08,1.82 10.23,3.68 15.34,5.54 1.03,0.37 2.06,0.75 3.09,1.12 6.65,2.43 13.19,4.86005 19.37,7.18 0.87,0.33 1.73,0.66 2.57995,0.98 0.02,0.01 0.04,0.01 0.0501,0.02 20.15,7.66 36,14.22 38.62,16.84 2.8,2.8 3.96,21.72 4.28,45.1 0.58,43.33 -1.71,101.99006 -1.71,101.99006 l -23.57,-0.09 c 0,0 -0.15,-0.52 -0.44,-1.49 -0.52,-1.79 -1.49,-5.12 -2.78,-9.47 -5.36,-18.17 -16.15,-54.18 -22.11,-70.67 -1.68,-4.66 -2.98,-7.76 -3.67,-8.46 -4,-4.1 0,-5.91 4,-8.51 4,-2.6 0,-3.4 -2.94,-6.8 -2.94,-3.4 1.1,-11.06 1.1,-11.06 0,0 -2.66,-0.07 -6.9,-0.18 -6.26,-0.16 -16,-0.4 -25.75,-0.64 -0.01,0.01 -0.01,0.01 -0.01,0 -3.67005,-0.09 -7.34,-0.18 -10.82,-0.25995 -2.7,-0.07 -5.29,-0.13 -7.69,-0.19 -7.19,-0.16 -12.63,-0.27 -13.99,-0.27 -4.44,0 -0.99,0 -3.67005,-3.51 a 15.67531,15.67531 0 0 0 -1.32995,-1.49 17.32153,17.32153 0 0 0 -2.2,-2.06 c -0.56,-0.26 0.2,1.35 -0.22,3.44 a 6.31656,6.31656 0 0 1 -1.55,3.03 c -3.97,4.41 -16.15,-0.35 -16.15,-0.35 -20.039997,10.02 -36.479997,9.3 -49.139997,4.61 a 63.00711,63.00711 0 0 1 -23.83,-16.26 59.50548,59.50548 0 0 1 -6.98,-8.9 l -1.65,-0.31 c 0,0 -2.22015,-74.38387 0.33985,-79.41384 3.99,-7.84 63,-2 63,-2 z"
       fill="#2f2e41"
       id="path26" />
    <path
       d="m 229.85568,-554.84172 h 81.4331 a 1,1 0 0 0 0,-2 h -81.4331 a 1,1 0 0 0 0,2 z"
       fill="#3f3d56"
       id="path28" />
    <path
       d="m 340.10707,-475.31454 c -16.51077,-21.96123 -26.0537,-46.51942 -26.36641,-74.51776 a 6.04124,6.04124 0 0 1 3.67595,-7.70164 l 56.27746,-19.91249 a 6.0412,6.0412 0 0 1 7.7016,3.676 l 26.36646,74.51773 a 6.04121,6.04121 0 0 1 -3.676,7.70167 l -56.27746,19.91249 a 6.04122,6.04122 0 0 1 -7.7016,-3.676 z"
       fill="#e6e6e6"
       id="path30" />
    <path
       d="m 336.46013,-499.34942 c -9.93022,-10.04034 -14.1809,-27.94789 -16.95072,-47.90679 a 5.65768,5.65768 0 0 1 3.44264,-7.21282 l 48.36574,-17.1131 a 5.65791,5.65791 0 0 1 7.21308,3.44253 l 23.46251,66.31068 a 5.65792,5.65792 0 0 1 -3.4429,7.21291 l -29.96157,10.60121 a 25.202,25.202 0 0 1 -32.12878,-15.33462 z"
       fill="#ffffff"
       id="path32" />
    <path
       d="m 379.17829,-532.41772 -37.67558,13.44829 a 2.4002304,2.4002304 0 1 1 -1.6138,-4.52107 l 37.67558,-13.44829 a 2.4002304,2.4002304 0 1 1 1.6138,4.52107 z"
       fill="#6c63ff"
       id="path34" />
    <path
       d="m 345.36625,-534.32503 -8.28863,2.95862 a 2.40023,2.40023 0 0 1 -1.61379,-4.52107 l 8.28862,-2.95862 a 2.4002304,2.4002304 0 1 1 1.6138,4.52107 z"
       fill="#6c63ff"
       id="path36" />
    <path
       d="m 386.27295,-512.54191 -37.67558,13.44828 a 2.4002304,2.4002304 0 0 1 -1.6138,-4.52107 l 37.67556,-13.44828 a 2.40023,2.40023 0 1 1 1.61379,4.52107 z"
       fill="#6c63ff"
       id="path38" />
    <path
       d="m 382.72562,-522.47982 -37.67558,13.44829 a 2.4002304,2.4002304 0 0 1 -1.6138,-4.52107 l 37.67559,-13.44829 a 2.40023,2.40023 0 0 1 1.61379,4.52107 z"
       fill="#6c63ff"
       id="path40" />
    <circle
       cx="316.94034"
       cy="-551.84174"
       r="10"
       fill="#6c63ff"
       id="circle42" />
    <path
       d="M 136.02503,-573.84172 H 54.591923 a 1,1 0 0 1 0,-2 h 81.433107 a 1,1 0 0 1 0,2 z"
       fill="#3f3d56"
       id="path44" />
    <path
       d="m -50.714417,-538.37024 c 7.07238,-26.54962 20.491,-49.22368 42.3164196,-66.76381 a 6.04125,6.04125 0 0 1 8.32734001,-1.86634 l 50.42150039,31.9583 a 6.04122,6.04122 0 0 1 1.86632,8.32732 l -42.3164304,66.7638 a 6.04122,6.04122 0 0 1 -8.32731,1.86637 l -50.4214896,-31.9583 a 6.04123,6.04123 0 0 1 -1.86635,-8.32734 z"
       fill="#e6e6e6"
       id="path46" />
    <path
       d="m -34.065447,-556.0843 c 1.76221,-14.01115 13.21955,-28.41523 27.2048396,-42.92183 a 5.65767,5.65767 0 0 1 7.79880001,-1.74789 l 43.33300039,27.46547 a 5.65791,5.65791 0 0 1 1.74813,7.79895 l -37.6558604,59.4107 a 5.65791,5.65791 0 0 1 -7.79899999,1.74774 L -26.279447,-521.34545 a 25.202,25.202 0 0 1 -7.786,-34.73885 z"
       fill="#ffffff"
       id="path48" />
    <path
       d="m 18.326693,-542.91554 -33.84776,-21.32218 a 2.40023,2.40023 0 0 1 2.55866,-4.06173 l 33.84776,21.32218 a 2.40023,2.40023 0 1 1 -2.55866,4.06173 z"
       fill="#6c63ff"
       id="path50" />
    <path
       d="m -1.0586174,-570.68426 -7.4465,-4.69088 a 2.40023,2.40023 0 1 1 2.55866,-4.06173 l 7.4465,4.69088 a 2.40023,2.40023 0 1 1 -2.55866,4.06173 z"
       fill="#6c63ff"
       id="path52" />
    <path
       d="m 7.0781326,-525.05911 -33.8477596,-21.32217 a 2.40023,2.40023 0 1 1 2.55866,-4.06173 l 33.8477596,21.32217 a 2.40023,2.40023 0 0 1 -2.55866,4.06173 z"
       fill="#6c63ff"
       id="path54" />
    <path
       d="m 12.702423,-533.98732 -33.84776,-21.32218 a 2.40023,2.40023 0 1 1 2.55866,-4.06173 l 33.84781,21.3222 a 2.4002329,2.4002329 0 0 1 -2.55866,4.06174 z"
       fill="#6c63ff"
       id="path56" />
    <circle
       cx="48.940353"
       cy="-570.84174"
       r="10"
       fill="#6c63ff"
       id="circle58" />
    <circle
       cx="263.94034"
       cy="-430.84171"
       r="10"
       fill="#6c63ff"
       id="circle60" />
    <path
       d="m 217.12881,-180.95903 c -4.17,22.72 -21.84,75.97 -32.52,107.14 -4.87,14.24 -5.27,8.87994 -5.27,8.87994 l -5.55,-1.75 -9.36,-2.96 -3.42005,-1.08 -4.13995,-1.31 c 0,0 -2.03,-36.22 -2.68,-63.39 -0.22,-8.76 -0.6,-15.02 -1.23,-16.26 -2.6,-5.1 1.75,-5.63995 6.34,-6.93 4.6,-1.29 1.01,-3.23 -0.78,-7.37 -1.21,-2.76 1.17,-6.43 2.86005,-8.53 a 20.69953,20.69953 0 0 1 1.49,-1.69 c 0,0 -11.7,-3.98 -24.93,-8.47 -0.01,0.01 -0.01,0 -0.01,0 -1.33,-0.45 -2.67005,-0.9 -4.01,-1.36 4.66,-1.68 7.76,-2.98 8.46,-3.67 4.1,-4 5.91,0 8.51,4 2.6,4 3.4,0 6.8,-2.94 3.4,-2.94 11.06,1.1 11.06,1.1 0,0 0.07,-2.66 0.18,-6.9 0.16,-6.26 0.4,-16 0.64,-25.75 -0.01,-0.01 -0.01,-0.01 0,-0.01 0.09,-3.67 0.18,-7.34 0.26,-10.82 7.05005,5.4 13.89,10.7 20.09,15.6 0.01,0.01 0.03,0.02 0.03,0.04 14.91,11.78 26.1,21.24 27.67,24.24 0.7099,1.36006 0.46991,4.97006 -0.49005,10.19006 z"
       fill="#2f2e41"
       id="path62" />
    <path
       d="m 120.94035,-265.84172 -3.68,2.39 -9.42,6.12 -12.779997,8.29 -68.12,44.2 c 0,0 -8.42,-17.16 -0.71,-32.08 a 33.02251,33.02251 0 0 0 2.41,-5.91 c 3.12,-10.7 -2.88,-15.34 -2.88,-15.34 0,0 -10,-9.73 -0.41,-18.7 1.97,-1.84 3.07,-5.61 3.57,-10.45 0.84,-7.96 0.07,-18.8 -1.1,-28.65 -1.58,-13.35 -3.88,-24.87 -3.88,-24.87 a 113.61882,113.61882 0 0 1 2.44,-23.83 c 1.83,-8.44 4.77,-16.46 9.12,-23.12 a 43.97881,43.97881 0 0 1 5.49,-6.88 35.55217,35.55217 0 0 1 9.95,-7.17 c 5.56,-2.68 15.09,-1.07 23.49,0.1 1.69,0.23 3.33,0.45 4.88,0.61 a 43.67789,43.67789 0 0 0 4.63,0.29 l 3.48,12.7 1.32,4.81 0.66,2.41 1.5,5.48 0.62,2.24 9.979997,36.43994 8.15,29.72 4.5,16.42 6.73,24.55 z"
       fill="#3f3d56"
       id="path64" />
    <circle
       cx="65.188431"
       cy="-439.94168"
       r="30.35523"
       fill="#a0616a"
       id="circle66" />
    <path
       d="m 59.502313,-414.85032 -2.47262,7.90627 c -5.48267,-2.70663 -11.039,-5.46224 -15.60428,-9.52964 -4.56528,-4.0674 -8.09625,-9.68028 -8.31239,-15.79083 -0.11164,-3.15584 0.65255,-6.33937 0.12819,-9.45335 -0.59251,-3.51868 -2.76431,-6.56907 -3.75846,-9.996 a 15.94481,15.94481 0 0 1 8.60174,-18.40534 c 5.03174,-2.21135 10.78558,-1.59063 16.25576,-2.12508 5.47018,-0.53445 11.57219,-3.009 13.11186,-8.28515 0.57567,-1.9727 0.5097,-4.29864 2.27191,-5.59028 a 4.312,4.312 0 0 1 5.70961,0.82548 c 2.57614,2.92481 1.942,6.77622 1.26729,10.27775 a 25.67949,25.67949 0 0 0 17.75181,-10.79259 9.94821,9.94821 0 0 1 0.39383,14.13311 7.6722,7.6722 0 0 0 7.464787,-5.88708 c 2.09487,2.89341 4.24492,5.91085 4.91846,9.41893 0.67354,3.50808 -0.57661,7.6572 -3.79381,9.20958 a 12.32659,12.32659 0 0 1 -5.167607,0.84613 l -13.48739,0.25626 a 15.44769,15.44769 0 0 0 -15.15295,15.24474 v 0 c -3.92392,-0.377 -7.96537,-0.74569 -11.67586,0.90685 a 8.96126,8.96126 0 0 0 -4.1646,3.57853 c -2.45221,4.21226 -0.0193,8.59023 2.1369,12.42153 1.84317,3.275 3.59053,7.219 2.061,10.65172"
       fill="#2f2e41"
       id="path68" />
    <path
       d="m 198.072,-106.63859 -56.27746,-19.91244 a 6.04121,6.04121 0 0 1 -3.67591,-7.70162 l 26.3664,-74.51778 a 6.04121,6.04121 0 0 1 7.7016,-3.676 l 56.2775,19.91249 a 6.04125,6.04125 0 0 1 3.67595,7.70164 c -0.31272,27.99834 -9.85565,52.55653 -26.36641,74.51776 a 6.04122,6.04122 0 0 1 -7.70167,3.67595 z"
       fill="#e6e6e6"
       id="path70" />
    <path
       d="m 177.29179,-119.0148 -29.96158,-10.60123 a 5.65792,5.65792 0 0 1 -3.4429,-7.21291 l 23.46252,-66.31068 a 5.65791,5.65791 0 0 1 7.21308,-3.44253 l 48.36574,17.11312 a 5.65769,5.65769 0 0 1 3.44264,7.21282 c -2.76983,19.9589 -7.02051,37.86645 -16.95073,47.90679 a 25.20194,25.20194 0 0 1 -32.12877,15.33462 z"
       fill="#ffffff"
       id="path72" />
    <path
       d="m 165.24878,-170.48515 a 2.403,2.403 0 0 1 3.06743,-1.45364 l 37.67558,13.44829 a 2.40023,2.40023 0 1 1 -1.61379,4.52107 l -37.67558,-13.44829 a 2.403,2.403 0 0 1 -1.45364,-3.06743 z"
       fill="#6c63ff"
       id="path74" />
    <path
       d="m 199.06082,-172.39243 a 2.403,2.403 0 0 1 3.06743,-1.45364 l 8.28863,2.95862 a 2.4002304,2.4002304 0 1 1 -1.6138,4.52107 l -8.28862,-2.95862 a 2.403,2.403 0 0 1 -1.45364,-3.06743 z"
       fill="#6c63ff"
       id="path76" />
    <path
       d="m 158.15413,-150.60934 a 2.403,2.403 0 0 1 3.06743,-1.45364 l 37.67557,13.44828 a 2.40023,2.40023 0 1 1 -1.61379,4.52107 l -37.67559,-13.44828 a 2.403,2.403 0 0 1 -1.45362,-3.06743 z"
       fill="#6c63ff"
       id="path78" />
    <path
       d="m 161.70145,-160.54725 a 2.403,2.403 0 0 1 3.06743,-1.45364 l 37.67558,13.44829 a 2.40023,2.40023 0 1 1 -1.61379,4.52107 l -37.67554,-13.44829 a 2.403,2.403 0 0 1 -1.45368,-3.06743 z"
       fill="#6c63ff"
       id="path80" />
    <path
       d="m 181.01254,-211.36203 a 9.82838,9.82838 0 0 0 -11.93934,-6.736 9.429,9.429 0 0 0 -1.46068,0.54408 l -49.74287,-44.96715 -10.86,19.99094 56.488,38.31415 a 9.80113,9.80113 0 0 0 11.03209,4.63364 9.37963,9.37963 0 0 0 6.55459,-11.53224 q -0.0342,-0.12421 -0.0718,-0.24742 z"
       fill="#a0616a"
       id="path82" />
    <path
       d="m 143.90037,-243.1417 -1.94,2.4 -11.42,14.17 -1.54,1.92 c 0,0 -16.31,-11.2 -33.939997,-24.39 -21.16,-15.85 -44.22,-34.58 -43.19,-40.29 1.89,-10.45 -0.78,-1.72 -7.45,-5.34 -6.66,-3.63 1.5,-4.02 5.21,-14.29 3.72,-10.26 -0.48,-4.55 -8.53,-7.55 -5.37,-2 -2.56,-47.87994 -0.11,-78.16 a 35.55217,35.55217 0 0 1 9.95,-7.17 c 6.67,-3.22 19.08,-0.25 28.37,0.71 5.26,38.77 12.85,95.48 12.51,97.27 -0.52,2.73 2.18,8.18 6.44,14.06 1.999997,2.78 12.309997,13.35 22.619997,23.73 11.49998,11.57996 23.02,22.93 23.02,22.93 z"
       fill="#3f3d56"
       id="path84" />
    <path
       d="M 389.08061,-385.86966 H 283.20394 a 2.28324,2.28324 0 1 1 0,-4.56647 h 105.87667 a 2.28324,2.28324 0 0 1 0,4.56647 z"
       fill="#6c63ff"
       id="path86" />
    <path
       d="M 442.67725,-364.99554 H 283.20394 a 2.28324,2.28324 0 1 1 0,-4.56647 h 159.47331 a 2.28324,2.28324 0 0 1 0,4.56647 z"
       fill="#f2f2f2"
       id="path88" />
    <path
       d="m 442.68034,-348.69132 h -159.48 a 2.285,2.285 0 0 0 0,4.57 h 159.48 a 2.285,2.285 0 0 0 0,-4.57 z"
       fill="#f2f2f2"
       id="path90" />
    <path
       d="M 442.67725,-323.2473 H 283.20394 a 2.28324,2.28324 0 1 1 0,-4.56647 h 159.47331 a 2.28324,2.28324 0 0 1 0,4.56647 z"
       fill="#f2f2f2"
       id="path92" />
  </g>
</svg>
